<svg xmlns="http://www.w3.org/2000/svg" xmlns:xlink="http://www.w3.org/1999/xlink" width="1771.963" height="1773.182" viewBox="0 0 1771.963 1773.182">
  <defs>
    <clipPath id="clip-path">
      <rect width="1771.963" height="1773.182" fill="none"/>
    </clipPath>
  </defs>
  <g id="Sampad" clip-path="url(#clip-path)">
    <g id="Sampad-2" data-name="Sampad" transform="translate(-5.056)">
      <g id="Group_1" data-name="Group 1">
        <path id="Path_1" data-name="Path 1" d="M678.755,1472.74H787.931V1125.793L544.694,1368.336l77.807,77.676L262.01,1510.848c21.576-120.143,43.032-239.611,64.522-359.279q38.847,38.806,76.313,76.23c82.551-82.223,164.494-163.842,246.7-245.721H305.428V1091.8L5.056,882.933c100.035-69.573,199.608-138.825,300-208.646v109.16H651.365L408.576,540.66l-76.644,76.8c-21.656-120.549-43.115-240-64.732-360.337L626.254,321.7l-76.707,76.826L795.49,644.1V300.719H685.856C755.785,200.021,825,100.351,894.691,0c69.547,100.142,138.769,199.815,208.51,300.238H994.137V646.115l243.219-242.529-77.122-76.53,359.826-64.729c-21.574,120.141-43.011,239.514-64.438,358.836l-76.416-76.436L1132,790.962h344.589V681.313c100.6,69.959,200.189,139.209,300.435,208.921-100.041,69.576-199.639,138.846-300.068,208.693V989.638H1130.467l242.668,242.514c24.729-24.652,50.287-50.133,76.965-76.73l64.787,360.627-358.413-64.482,76.345-76.371Q1108.466,1251.04,986.432,1129.2v343.322H1096.17c-69.9,100.65-139.167,200.408-208.784,300.658C817.777,1672.94,748.525,1573.21,678.755,1472.74Zm212.3-384.85a201.061,201.061,0,0,0,201.194-201.331c-.027-111.315-90.03-201.359-201.236-201.331a201.331,201.331,0,0,0,.042,402.662Z" fill="#fff" fill-rule="evenodd"/>
      </g>
      <g id="g1343">
        <path id="path1345" d="M969.535,747.62s137.646,107.648,36.471,262.353C1101.3,951.738,1109.54,791.59,969.535,747.62Z" fill="#fff"/>
        <path id="path1347" d="M892.037,732.327c-21.912,24.706-59.559.147-46.617-26.765,22.646,40.587,46.617,7.794,46.617,7.794s23.97,32.793,46.617-7.794C951.6,732.474,913.949,757.032,892.037,732.327Z" fill="#fff"/>
        <path id="path1349" d="M892.037,1067.62,876.3,1047.032s-37.059,12.354-85.883-4.7c40,0,62.354-7.061,70.588-11.178,0,0-90.588-48.822-88.822-148.234,5.293-100.587,58.822-131.175,58.822-131.175s-95.293,138.821,44.705,254.849l-6.176-143.528V757.621c7.941-1.912,22.5-18.676,22.5-18.676s14.559,16.764,22.5,18.676v105.44l-6.177,143.528c140-116.027,44.7-254.849,44.7-254.849s53.529,30.588,58.824,131.175c1.765,99.412-88.823,148.234-88.823,148.234,8.235,4.117,30.589,11.178,70.587,11.178-48.822,17.059-85.881,4.7-85.881,4.7Z" fill="#fff"/>
        <path id="path1351" d="M814.537,747.62s-137.645,107.648-36.469,262.353C682.774,951.738,674.539,791.59,814.537,747.62Z" fill="#fff"/>
      </g>
    </g>
  </g>
</svg>
